<svg id="plp-svg" xmlns="http://www.w3.org/2000/svg" viewBox="0 0 619.59 484.24">
  <title>plp-illustrator</title>
  <g id="P2">
    <g id="g900">
      <path id="path4" d="M966,297.33l-73.07-42.18L966,213,1039,255.15Z" transform="translate(-492.49 -212.96)" style="fill: #e2e2e2"/>
      <path id="path1232" d="M892.88,339.52V255.15L966,297.33v84.38Z" transform="translate(-492.49 -212.96)" style="fill: #d8d8d8"/>
      <path id="path8" d="M965.94,297.33,1039,255.15v84.37l-73.08,42.19Z" transform="translate(-492.49 -212.96)" style="fill: #c3c3c3"/>
    </g>
    <g id="g908">
      <path id="path12" d="M1039,339.52l-73.07-42.19L1039,255.15l73.08,42.18Z" transform="translate(-492.49 -212.96)" style="fill: #e2e2e2"/>
      <path id="path14" d="M965.94,381.71V297.33L1039,339.52V423.9Z" transform="translate(-492.49 -212.96)" style="fill: #d8d8d8"/>
      <path id="path16" d="M1039,339.52l73.07-42.18v84.37L1039,423.9Z" transform="translate(-492.49 -212.96)" style="fill: #c3c3c3"/>
    </g>
    <g id="g916">
      <path id="path20" d="M892.88,339.52l-73.07-42.19,73.07-42.18L966,297.33Z" transform="translate(-492.49 -212.96)" style="fill: #e2e2e2"/>
      <path id="path22" d="M819.81,381.71V297.33l73.07,42.19V423.9Z" transform="translate(-492.49 -212.96)" style="fill: #d8d8d8"/>
      <path id="path24" d="M892.88,339.52,966,297.34v84.37L892.88,423.9Z" transform="translate(-492.49 -212.96)" style="fill: #c3c3c3"/>
    </g>
    <g id="g924">
      <path id="path28" d="M966,381.71l-73.07-42.19L966,297.34,1039,339.52Z" transform="translate(-492.49 -212.96)" style="fill: #e2e2e2"/>
      <path id="path32" d="M965.94,381.71,1039,339.52V423.9l-73.08,42.19Z" transform="translate(-492.49 -212.96)" style="fill: #c3c3c3"/>
      <path id="path30" d="M892.88,423.9V339.52L966,381.71v84.38Z" transform="translate(-492.49 -212.96)" style="fill: #d8d8d8"/>
    </g>
    <g id="g932">
      <path id="path36" d="M1039,423.9l-73.07-42.19L1039,339.52l73.08,42.19Z" transform="translate(-492.49 -212.96)" style="fill: #e2e2e2"/>
      <path id="path38" d="M965.94,466.09V381.71L1039,423.9v84.37Z" transform="translate(-492.49 -212.96)" style="fill: #d8d8d8"/>
      <path id="path40" d="M1039,423.9l73.07-42.19v84.38L1039,508.27Z" transform="translate(-492.49 -212.96)" style="fill: #c3c3c3"/>
    </g>
  </g>
  <g id="L">
    <g id="g978">
      <path id="path1234" d="M729.21,434l-73.07-42.19,73.07-42.19,73.08,42.19Z" transform="translate(-492.49 -212.96)" style="fill: #e2e2e2"/>
      <path id="path1236" d="M656.14,476.19V391.82L729.22,434v84.37Z" transform="translate(-492.49 -212.96)" style="fill: #d8d8d8"/>
      <path id="path1238" d="M729.21,434l73.07-42.19v84.37l-73.07,42.19Z" transform="translate(-492.49 -212.96)" style="fill: #c3c3c3"/>
    </g>
    <g id="g986">
      <path id="path1242" d="M802.28,476.19,729.21,434l73.07-42.19L875.35,434Z" transform="translate(-492.49 -212.96)" style="fill: #e2e2e2"/>
      <path id="path1244" d="M729.21,518.38V434l73.07,42.18v84.38Z" transform="translate(-492.49 -212.96)" style="fill: #d8d8d8"/>
      <path id="path1246" d="M802.28,476.19,875.35,434v84.37l-73.07,42.19Z" transform="translate(-492.49 -212.96)" style="fill: #c3c3c3"/>
    </g>
    <g id="g994">
      <path id="path1250" d="M948.42,476.19,875.35,434l73.07-42.19L1021.49,434Z" transform="translate(-492.49 -212.96)" style="fill: #e2e2e2"/>
      <path id="path1252" d="M875.35,518.38V434l73.07,42.18v84.38Z" transform="translate(-492.49 -212.96)" style="fill: #d8d8d8"/>
      <path id="path1254" d="M948.42,476.19,1021.49,434v84.37l-73.07,42.19Z" transform="translate(-492.49 -212.96)" style="fill: #c3c3c3"/>
    </g>
    <g id="g1002">
      <path id="path1258" d="M875.35,518.38l-73.07-42.19L875.35,434l73.07,42.18Z" transform="translate(-492.49 -212.96)" style="fill: #e2e2e2"/>
      <path id="path1260" d="M802.28,560.57V476.19l73.07,42.19v84.38Z" transform="translate(-492.49 -212.96)" style="fill: #d8d8d8"/>
      <path id="path1262" d="M875.35,518.38l73.07-42.19v84.38l-73.07,42.19Z" transform="translate(-492.49 -212.96)" style="fill: #c3c3c3"/>
    </g>
  </g>
  <g id="P1">
    <g id="g1048">
      <path id="path80" d="M638.63,486.26l-73.07-42.19,73.07-42.19,73.07,42.19Z" transform="translate(-492.49 -212.96)" style="fill: #e2e2e2"/>
      <path id="path82" d="M565.56,528.45V444.07l73.08,42.19v84.37Z" transform="translate(-492.49 -212.96)" style="fill: #d8d8d8"/>
      <path id="path84" d="M638.63,486.26l73.07-42.19v84.38l-73.07,42.18Z" transform="translate(-492.49 -212.96)" style="fill: #c3c3c3"/>
    </g>
    <g id="g1056">
      <path id="path88" d="M711.7,528.45l-73.07-42.19,73.07-42.19,73.07,42.19Z" transform="translate(-492.49 -212.96)" style="fill: #e2e2e2"/>
      <path id="path90" d="M638.63,570.63V486.26l73.07,42.19v84.37Z" transform="translate(-492.49 -212.96)" style="fill: #d8d8d8"/>
      <path id="path92" d="M711.7,528.45l73.07-42.19v84.37L711.7,612.82Z" transform="translate(-492.49 -212.96)" style="fill: #c3c3c3"/>
    </g>
    <g id="g1064">
      <path id="path96" d="M565.57,528.45l-73.08-42.19,73.08-42.19,73.07,42.19Z" transform="translate(-492.49 -212.96)" style="fill: #e2e2e2"/>
      <path id="path98" d="M492.49,570.63V486.26l73.08,42.19v84.37Z" transform="translate(-492.49 -212.96)" style="fill: #d8d8d8"/>
      <path id="path100" d="M565.56,528.45l73.07-42.19v84.37l-73.07,42.19Z" transform="translate(-492.49 -212.96)" style="fill: #c3c3c3"/>
    </g>
    <g id="g1072">
      <path id="path104" d="M638.63,570.63l-73.07-42.18,73.07-42.19,73.07,42.19Z" transform="translate(-492.49 -212.96)" style="fill: #e2e2e2"/>
      <path id="path106" d="M565.56,612.82V528.45l73.08,42.18V655Z" transform="translate(-492.49 -212.96)" style="fill: #d8d8d8"/>
      <path id="path108" d="M638.63,570.63l73.07-42.18v84.37L638.63,655Z" transform="translate(-492.49 -212.96)" style="fill: #c3c3c3"/>
    </g>
    <g id="g1080">
      <path id="path112" d="M711.7,612.82l-73.07-42.19,73.07-42.18,73.07,42.18Z" transform="translate(-492.49 -212.96)" style="fill: #e2e2e2"/>
      <path id="path114" d="M638.63,655V570.63l73.07,42.19V697.2Z" transform="translate(-492.49 -212.96)" style="fill: #d8d8d8"/>
      <path id="path116" d="M711.7,612.82l73.07-42.19V655L711.7,697.2Z" transform="translate(-492.49 -212.96)" style="fill: #c3c3c3"/>
    </g>
  </g>
</svg>
