<?xml version="1.0" encoding="UTF-8" standalone="no"?>
<svg
   xmlns:dc="http://purl.org/dc/elements/1.1/"
   xmlns:cc="http://creativecommons.org/ns#"
   xmlns:rdf="http://www.w3.org/1999/02/22-rdf-syntax-ns#"
   xmlns:svg="http://www.w3.org/2000/svg"
   xmlns="http://www.w3.org/2000/svg"
   xmlns:sodipodi="http://sodipodi.sourceforge.net/DTD/sodipodi-0.dtd"
   xmlns:inkscape="http://www.inkscape.org/namespaces/inkscape"
   width="1611.5"
   height="911.5"
   viewBox="450 400 3223 1823"
   id="plp-svg"
   version="1.1"
   sodipodi:docname="plp-inkscape.svg"
   inkscape:version="0.92.3 (2405546, 2018-03-11)">
  <metadata
     id="metadata127">
    <rdf:RDF>
      <cc:Work
         rdf:about="">
        <dc:format>image/svg+xml</dc:format>
        <dc:type
           rdf:resource="http://purl.org/dc/dcmitype/StillImage" />
        <dc:title>plp</dc:title>
      </cc:Work>
    </rdf:RDF>
  </metadata>
  <defs
     id="defs125" />
  <sodipodi:namedview
     pagecolor="#ffffff"
     borderopacity="1"
     objecttolerance="10"
     gridtolerance="10"
     guidetolerance="10"
     inkscape:pageopacity="0"
     inkscape:pageshadow="2"
     inkscape:window-width="2560"
     inkscape:window-height="1377"
     id="namedview123"
     showgrid="true"
     fit-margin-top="100"
     fit-margin-left="100"
     fit-margin-right="100"
     fit-margin-bottom="100"
     showguides="true"
     inkscape:guide-bbox="true"
     inkscape:snap-grids="false"
     inkscape:zoom="0.63111111"
     inkscape:cx="630.64673"
     inkscape:cy="810.35325"
     inkscape:window-x="1912"
     inkscape:window-y="-8"
     inkscape:window-maximized="1"
     inkscape:current-layer="plp-svg"
     inkscape:measure-start="33.6125,873.924"
     inkscape:measure-end="-6.72249,377.58"
     scale-x="2"
     bordercolor="#666666" />
  <title
     id="title2">plp</title>
  <g
     id="P2">
    <g
       class="cube">
      <path
         class="top"
         d="m 2381.8928,994.67 -146.1426,-84.37508 146.1426,-84.375 146.1409,84.375 z"
         inkscape:connector-curvature="0"
         style="fill:#e2e2e2;stroke-width:1.6875" />
      <path
         style="fill:#d8d8d8;stroke-width:1.6875"
         inkscape:connector-curvature="0"
         d="M 2235.7519,1079.045 V 910.29492 L 2381.8945,994.67 v 168.75 z"
         class="left" />
      <path
         class="right"
         d="m 2381.8877,994.67 146.1426,-84.37508 V 1079.045 l -146.1426,84.375 z"
         inkscape:connector-curvature="0"
         style="fill:#c3c3c3;stroke-width:1.6875" />
    </g>
    <g
       class="cube">
      <path
         class="top"
         d="M 2528.0286,1079.045 2381.8877,994.67 2528.0286,910.29492 2674.1712,994.67 Z"
         inkscape:connector-curvature="0"
         style="fill:#e2e2e2;stroke-width:1.6875" />
      <path
         class="left"
         d="M 2381.8894,1163.42 V 994.67 l 146.1426,84.375 v 168.75 z"
         inkscape:connector-curvature="0"
         style="fill:#d8d8d8;stroke-width:1.6875" />
      <path
         class="right"
         d="m 2528.0252,1079.045 146.1409,-84.375 v 168.75 l -146.1409,84.375 z"
         inkscape:connector-curvature="0"
         style="fill:#c3c3c3;stroke-width:1.6875" />
    </g>
    <g
       class="cube">
      <path
         class="top"
         d="M 2235.7553,1079.045 2089.6127,994.67 2235.7553,910.29492 2381.8962,994.67 Z"
         inkscape:connector-curvature="0"
         style="fill:#e2e2e2;stroke-width:1.6875" />
      <path
         class="left"
         d="M 2089.6144,1163.42 V 994.67 l 146.1426,84.375 v 168.75 z"
         inkscape:connector-curvature="0"
         style="fill:#d8d8d8;stroke-width:1.6875" />
      <path
         class="right"
         d="m 2235.7502,1079.045 146.1426,-84.375 v 168.75 l -146.1426,84.375 z"
         inkscape:connector-curvature="0"
         style="fill:#c3c3c3;stroke-width:1.6875" />
    </g>
    <g
       class="cube">
      <path
         class="top"
         d="m 2381.8928,1163.42 -146.1426,-84.375 146.1426,-84.375 146.1409,84.375 z"
         inkscape:connector-curvature="0"
         style="fill:#e2e2e2;stroke-width:1.6875" />
      <path
         style="display:inline;fill:#c3c3c3;stroke-width:1.6875"
         inkscape:connector-curvature="0"
         d="m 2381.8877,1163.42 146.1426,-84.375 v 168.75 l -146.1426,84.375 z"
         class="right" />
      <path
         class="left"
         d="m 2235.7519,1247.795 v -168.75 l 146.1426,84.375 v 168.75 z"
         inkscape:connector-curvature="0"
         style="fill:#d8d8d8;stroke-width:1.6875" />
    </g>
    <g
       class="cube">
      <path
         class="top"
         d="m 2528.0286,1247.795 -146.1409,-84.375 146.1409,-84.375 146.1426,84.375 z"
         style="fill:#e2e2e2;stroke-width:1.6875"
         inkscape:connector-curvature="0" />
      <path
         class="left"
         d="m 2381.8894,1332.17 v -168.75 l 146.1426,84.375 v 168.75 z"
         inkscape:connector-curvature="0"
         style="fill:#d8d8d8;stroke-width:1.6875" />
      <path
         class="right"
         d="m 2528.0252,1247.795 146.1409,-84.375 v 168.75 l -146.1409,84.375 z"
         inkscape:connector-curvature="0"
         style="display:inline;fill:#c3c3c3;stroke-width:1.6875" />
    </g>
  </g>
  <g
     id="L">
    <g
       class="cube">
      <path
         style="fill:#e2e2e2;stroke-width:1.6875"
         inkscape:connector-curvature="0"
         d="m 1908.4291,1268.013 -146.1426,-84.375 146.1426,-84.375 146.1409,84.375 z"
         class="top" />
      <path
         style="fill:#d8d8d8;stroke-width:1.6875"
         inkscape:connector-curvature="0"
         d="m 1762.2882,1352.388 v -168.75 l 146.1426,84.375 v 168.75 z"
         class="left" />
      <path
         style="fill:#c3c3c3;stroke-width:1.6875"
         inkscape:connector-curvature="0"
         d="m 1908.424,1268.013 146.1426,-84.375 v 168.75 l -146.1426,84.375 z"
         class="right" />
    </g>
    <g
       class="cube">
      <path
         style="fill:#e2e2e2;stroke-width:1.6875"
         inkscape:connector-curvature="0"
         d="m 2054.5666,1352.388 -146.1426,-84.375 146.1426,-84.375 146.1409,84.375 z"
         class="top" />
      <path
         style="fill:#d8d8d8;stroke-width:1.6875"
         inkscape:connector-curvature="0"
         d="m 1908.4257,1436.763 v -168.75 l 146.1426,84.375 v 168.75 z"
         class="left" />
      <path
         style="fill:#c3c3c3;stroke-width:1.6875"
         inkscape:connector-curvature="0"
         d="m 2054.5615,1352.388 146.1426,-84.375 v 168.75 l -146.1426,84.375 z"
         class="right" />
    </g>
    <g
       class="cube">
      <path
         style="fill:#e2e2e2;stroke-width:1.6875"
         inkscape:connector-curvature="0"
         d="m 2346.8416,1352.388 -146.1426,-84.375 146.1426,-84.375 146.1409,84.375 z"
         class="top" />
      <path
         style="fill:#d8d8d8;stroke-width:1.6875"
         inkscape:connector-curvature="0"
         d="m 2200.7007,1436.763 v -168.75 l 146.1426,84.375 v 168.75 z"
         class="left" />
      <path
         style="fill:#c3c3c3;stroke-width:1.6875"
         inkscape:connector-curvature="0"
         d="m 2346.8365,1352.388 146.1426,-84.375 v 168.75 l -146.1426,84.375 z"
         class="right" />
    </g>
    <g
       class="cube">
      <path
         style="fill:#e2e2e2;stroke-width:1.6875"
         inkscape:connector-curvature="0"
         d="m 2200.7041,1436.763 -146.1426,-84.375 146.1426,-84.375 146.1409,84.375 z"
         class="top" />
      <path
         style="fill:#d8d8d8;stroke-width:1.6875"
         inkscape:connector-curvature="0"
         d="m 2054.5632,1521.138 v -168.75 l 146.1426,84.375 v 168.75 z"
         class="left" />
      <path
         style="fill:#c3c3c3;stroke-width:1.6875"
         inkscape:connector-curvature="0"
         d="m 2200.699,1436.763 146.1426,-84.375 v 168.75 l -146.1426,84.375 z"
         class="right" />
    </g>
  </g>
  <g
     id="P1">
    <g
       class="cube">
      <path
         class="top"
         d="m 1727.2683,1372.5183 -146.1426,-84.375 146.1426,-84.375 146.1408,84.375 z"
         inkscape:connector-curvature="0"
         style="fill:#e2e2e2;stroke-width:1.6875" />
      <path
         class="left"
         d="m 1581.1274,1456.8933 v -168.75 l 146.1426,84.375 v 168.75 z"
         inkscape:connector-curvature="0"
         style="fill:#d8d8d8;stroke-width:1.6875" />
      <path
         class="right"
         d="m 1727.2632,1372.5183 146.1426,-84.375 v 168.75 l -146.1426,84.375 z"
         inkscape:connector-curvature="0"
         style="fill:#c3c3c3;stroke-width:1.6875" />
    </g>
    <g
       class="cube">
      <path
         class="top"
         d="m 1873.4058,1456.8933 -146.1426,-84.375 146.1426,-84.375 146.1408,84.375 z"
         inkscape:connector-curvature="0"
         style="fill:#e2e2e2;stroke-width:1.6875" />
      <path
         class="left"
         d="m 1727.2649,1541.2683 v -168.75 l 146.1426,84.375 v 168.75 z"
         inkscape:connector-curvature="0"
         style="fill:#d8d8d8;stroke-width:1.6875" />
      <path
         class="right"
         d="m 1873.4007,1456.8933 146.1426,-84.375 v 168.75 l -146.1426,84.375 z"
         inkscape:connector-curvature="0"
         style="fill:#c3c3c3;stroke-width:1.6875" />
    </g>
    <g
       class="cube">
      <path
         class="top"
         d="m 1581.1308,1456.8933 -146.1426,-84.375 146.1426,-84.375 146.1408,84.375 z"
         inkscape:connector-curvature="0"
         style="fill:#e2e2e2;stroke-width:1.6875" />
      <path
         class="left"
         d="m 1434.9899,1541.2683 v -168.75 l 146.1426,84.375 v 168.75 z"
         inkscape:connector-curvature="0"
         style="fill:#d8d8d8;stroke-width:1.6875" />
      <path
         class="right"
         d="m 1581.1257,1456.8933 146.1426,-84.375 v 168.75 l -146.1426,84.375 z"
         inkscape:connector-curvature="0"
         style="fill:#c3c3c3;stroke-width:1.6875" />
    </g>
    <g
       class="cube">
      <path
         class="top"
         d="m 1727.2683,1541.2683 -146.1426,-84.375 146.1426,-84.375 146.1408,84.375 z"
         inkscape:connector-curvature="0"
         style="fill:#e2e2e2;stroke-width:1.6875" />
      <path
         class="left"
         d="m 1581.1274,1625.6433 v -168.75 l 146.1426,84.375 v 168.75 z"
         inkscape:connector-curvature="0"
         style="fill:#d8d8d8;stroke-width:1.6875" />
      <path
         class="right"
         d="m 1727.2632,1541.2683 146.1426,-84.375 v 168.75 l -146.1426,84.375 z"
         inkscape:connector-curvature="0"
         style="fill:#c3c3c3;stroke-width:1.6875" />
    </g>
    <g
       class="cube">
      <path
         class="top"
         d="m 1873.4058,1625.6433 -146.1426,-84.375 146.1426,-84.375 146.1408,84.375 z"
         inkscape:connector-curvature="0"
         style="fill:#e2e2e2;stroke-width:1.6875" />
      <path
         class="left"
         d="m 1727.2649,1710.0183 v -168.75 l 146.1426,84.375 v 168.75 z"
         inkscape:connector-curvature="0"
         style="fill:#d8d8d8;stroke-width:1.6875" />
      <path
         class="right"
         d="m 1873.4007,1625.6433 146.1426,-84.375 v 168.75 l -146.1426,84.375 z"
         inkscape:connector-curvature="0"
         style="fill:#c3c3c3;stroke-width:1.6875" />
    </g>
  </g>
</svg>
